========= wasusyt ===测速日志==========
========= feicuitai ===测速日志==========
[generic] Extracting URL: https://test.zapi.us.kg/?id=feicui
[generic] ?id=feicui: Downloading webpage
ERROR: [generic] Unable to download webpage: <urllib3.connection.HTTPSConnection object at 0x7fdc07bdf970>: Failed to resolve 'test.zapi.us.kg' ([Errno -5] No address associated with hostname) (caused by TransportError("<urllib3.connection.HTTPSConnection object at 0x7fdc07bdf970>: Failed to resolve 'test.zapi.us.kg' ([Errno -5] No address associated with hostname)"))
[generic] Extracting URL: https://tvb.mytvsuper.us.kg/stream/tvb/null/master.m3u8?u=btjson&p=213f2541f159ac2ec56f4173f3731f...7892870cf85ea22cb3cc
[generic] master: Downloading webpage
ERROR: [generic] Unable to download webpage: <urllib3.connection.HTTPSConnection object at 0x7f2f5fb9b970>: Failed to resolve 'tvb.mytvsuper.us.kg' ([Errno -2] Name or service not known) (caused by TransportError("<urllib3.connection.HTTPSConnection object at 0x7f2f5fb9b970>: Failed to resolve 'tvb.mytvsuper.us.kg' ([Errno -2] Name or service not known)"))
[generic] Extracting URL: https://edge6a.v2h-cdn.com/jade/jade.stream/playlist.m3u8
[generic] playlist: Downloading webpage
ERROR: [generic] Unable to download webpage: HTTP Error 404: Not Found (caused by <HTTPError 404: Not Found>)
[generic] Extracting URL: https://pi.0472.org/tv/fct.php?auth=2309081833
[generic] fct: Downloading webpage
[redirect] Following redirect to https://0472.org/hls/cgtn.m3u8
[generic] Extracting URL: https://0472.org/hls/cgtn.m3u8
[generic] cgtn: Downloading webpage
[generic] cgtn: Downloading m3u8 information
[generic] cgtn: Checking m3u8 live status
[info] cgtn: Downloading 1 format(s): 1000
[download] Destination: output.ts
[hls @ 0x55cb475f77c0] Skip ('#EXT-X-VERSION:3')
[hls @ 0x55cb475f77c0] Skip ('#EXT-X-ALLOW-CACHE:YES')
[hls @ 0x55cb475f77c0] Skip ('#EXT-X-PROGRAM-DATE-TIME:2024-10-20T09:31:48+08:00')
[hls @ 0x55cb475f77c0] Skip ('#EXT-X-PROGRAM-DATE-TIME:2024-10-20T09:31:58+08:00')
[hls @ 0x55cb475f77c0] Skip ('#EXT-X-PROGRAM-DATE-TIME:2024-10-20T09:32:08+08:00')
[hls @ 0x55cb475f77c0] Skip ('#EXT-X-PROGRAM-DATE-TIME:2024-10-20T09:32:18+08:00')
[hls @ 0x55cb475f77c0] Skip ('#EXT-X-PROGRAM-DATE-TIME:2024-10-20T09:32:28+08:00')
[hls @ 0x55cb475f77c0] Skip ('#EXT-X-PROGRAM-DATE-TIME:2024-10-20T09:32:38+08:00')
[hls @ 0x55cb475f77c0] Opening 'https://english-livetx.cgtn.com/hls/yypdyyctzbhd-1729079861.ts' for reading
[hls @ 0x55cb475f77c0] Opening 'https://english-livetx.cgtn.com/hls/yypdyyctzbhd-1729079862.ts' for reading
Input #0, hls, from 'https://english-livetx.cgtn.com/hls/yypdyyctzb_hd.m3u8':
  Duration: N/A, start: 11170.010000, bitrate: N/A
  Program 0 
    Metadata:
      variant_bitrate : 0
  Stream #0:0: Audio: aac (LC) ([15][0][0][0] / 0x000F), 44100 Hz, stereo, fltp
    Metadata:
      variant_bitrate : 0
  Stream #0:1: Video: h264 (Main) ([27][0][0][0] / 0x001B), yuv420p, 1280x720, 25 fps, 25 tbr, 90k tbn, 50 tbc
    Metadata:
      variant_bitrate : 0
Output #0, mpegts, to 'file:output.ts.part':
  Metadata:
    encoder         : Lavf58.76.100
  Stream #0:0: Video: h264 (Main) ([27][0][0][0] / 0x001B), yuv420p, 1280x720, q=2-31, 25 fps, 25 tbr, 90k tbn, 90k tbc
    Metadata:
      variant_bitrate : 0
  Stream #0:1: Audio: aac (LC) ([15][0][0][0] / 0x000F), 44100 Hz, stereo, fltp
    Metadata:
      variant_bitrate : 0
Stream mapping:
  Stream #0:1 -> #0:0 (copy)
  Stream #0:0 -> #0:1 (copy)
Press [q] to stop, [?] for help
frame=    0 fps=0.0 q=-1.0 size=       0kB time=00:00:00.02 bitrate=   0.0kbits/s speed=N/A    frame=  125 fps=0.0 q=-1.0 Lsize=    1453kB time=00:00:04.99 bitrate=2384.7kbits/s speed= 183x    
video:1351kB audio:39kB subtitle:0kB other streams:0kB global headers:0kB muxing overhead: 4.551995%
[download] 100% of    1.42MiB in 00:00:01 at 1.41MiB/s
[FixupM3u8] Fixing MPEG-TS in MP4 container of "output.ts"
========= bestzb ===测速日志==========
========= hongkong ===测速日志==========
[generic] Extracting URL: https://rthktv32-live.akamaized.net/hls/live/2036819/RTHKTV32/stream2/streamPlaylist.m3u8
[generic] streamPlaylist: Downloading webpage
ERROR: [generic] Unable to download webpage: HTTP Error 403: Forbidden (caused by <HTTPError 403: Forbidden>)
[generic] Extracting URL: https://live-hls-web-ajb.getaj.net/AJB/01.m3u8
[generic] 01: Downloading webpage
[generic] 01: Downloading m3u8 information
[generic] 01: Checking m3u8 live status
[info] 01: Downloading 1 format(s): 0
[download] Destination: output.ts
[hls @ 0x5646c914d7c0] Skip ('#EXT-X-VERSION:3')
[hls @ 0x5646c914d7c0] Opening 'https://live-hls-web-ajb.getaj.net/AJB/20190515T014705-01-18847054.ts' for reading
[hls @ 0x5646c914d7c0] Opening 'https://live-hls-web-ajb.getaj.net/AJB/20190515T014705-01-18847055.ts' for reading
[h264 @ 0x5646c97d9380] Increasing reorder buffer to 2
Input #0, hls, from 'https://live-hls-web-ajb.getaj.net/AJB/01.m3u8':
  Duration: N/A, start: 86491.889356, bitrate: N/A
  Program 0 
    Metadata:
      variant_bitrate : 0
  Stream #0:0: Video: h264 (High) ([27][0][0][0] / 0x001B), yuv420p(tv), 1920x1080 [SAR 1:1 DAR 16:9], 25 fps, 25 tbr, 90k tbn, 50 tbc
    Metadata:
      variant_bitrate : 0
  Stream #0:1: Audio: aac (LC) ([15][0][0][0] / 0x000F), 48000 Hz, stereo, fltp
    Metadata:
      variant_bitrate : 0
Output #0, mpegts, to 'file:output.ts.part':
  Metadata:
    encoder         : Lavf58.76.100
  Stream #0:0: Video: h264 (High) ([27][0][0][0] / 0x001B), yuv420p(tv), 1920x1080 [SAR 1:1 DAR 16:9], q=2-31, 25 fps, 25 tbr, 90k tbn, 90k tbc
    Metadata:
      variant_bitrate : 0
  Stream #0:1: Audio: aac (LC) ([15][0][0][0] / 0x000F), 48000 Hz, stereo, fltp
    Metadata:
      variant_bitrate : 0
Stream mapping:
  Stream #0:0 -> #0:0 (copy)
  Stream #0:1 -> #0:1 (copy)
Press [q] to stop, [?] for help
frame=    0 fps=0.0 q=-1.0 size=       0kB time=00:00:00.00 bitrate=   0.0kbits/s speed=N/A    frame=  127 fps=0.0 q=-1.0 Lsize=    3975kB time=00:00:04.99 bitrate=6514.0kbits/s speed=14.8x    
video:3775kB audio:80kB subtitle:0kB other streams:0kB global headers:0kB muxing overhead: 3.096605%
[download] 100% of    3.88MiB in 00:00:01 at 2.62MiB/s
[FixupM3u8] Fixing MPEG-TS in MP4 container of "output.ts"
[generic] Extracting URL: https://hoytv-live-stream.hoy.tv/ch77/index-fhd.m3u8
[generic] index-fhd: Downloading webpage
ERROR: [generic] Unable to download webpage: HTTP Error 403: Forbidden (caused by <HTTPError 403: Forbidden>)
[generic] Extracting URL: https://nhkwlive-ojp.akamaized.net/hls/live/2003459/nhkwlive-ojp-en/index.m3u8
[generic] index: Downloading webpage
[generic] index: Downloading m3u8 information
[generic] index: Checking m3u8 live status
[info] index: Downloading 1 format(s): 2978
[download] Destination: output.ts
[hls @ 0x55b1db8997c0] Skip ('#EXT-X-VERSION:4')
[hls @ 0x55b1db8997c0] Skip ('#EXT-X-PROGRAM-DATE-TIME:2024-10-20T01:31:58.680Z')
[hls @ 0x55b1db8997c0] Skip ('#EXT-X-PROGRAM-DATE-TIME:2024-10-20T01:32:04.686Z')
[hls @ 0x55b1db8997c0] Skip ('#EXT-X-PROGRAM-DATE-TIME:2024-10-20T01:32:10.692Z')
[hls @ 0x55b1db8997c0] Skip ('#EXT-X-PROGRAM-DATE-TIME:2024-10-20T01:32:16.698Z')
[hls @ 0x55b1db8997c0] Skip ('#EXT-X-PROGRAM-DATE-TIME:2024-10-20T01:32:22.704Z')
[hls @ 0x55b1db8997c0] Skip ('#EXT-X-PROGRAM-DATE-TIME:2024-10-20T01:32:28.710Z')
[hls @ 0x55b1db8997c0] Skip ('#EXT-X-PROGRAM-DATE-TIME:2024-10-20T01:32:34.716Z')
[hls @ 0x55b1db8997c0] Skip ('#EXT-X-PROGRAM-DATE-TIME:2024-10-20T01:32:40.722Z')
[hls @ 0x55b1db8997c0] Skip ('#EXT-X-PROGRAM-DATE-TIME:2024-10-20T01:32:46.728Z')
[hls @ 0x55b1db8997c0] Skip ('#EXT-X-PROGRAM-DATE-TIME:2024-10-20T01:32:52.734Z')
[hls @ 0x55b1db8997c0] Opening 'https://nhkwlive-ojp.akamaized.net/hls/live/2003459/nhkwlive-ojp-en/20241014T012912/index_2M/00028/index_2M_02349.ts' for reading
[hls @ 0x55b1db8997c0] Opening 'https://nhkwlive-ojp.akamaized.net/hls/live/2003459/nhkwlive-ojp-en/20241014T012912/index_2M/00028/index_2M_02350.ts' for reading
Input #0, hls, from 'https://nhkwlive-ojp.akamaized.net/hls/live/2003459/nhkwlive-ojp-en/index_2M.m3u8':
  Duration: N/A, start: 41389.589422, bitrate: N/A
  Program 0 
    Metadata:
      variant_bitrate : 0
  Stream #0:0: Video: h264 (Main) ([27][0][0][0] / 0x001B), yuv420p, 1280x720 [SAR 1:1 DAR 16:9], Closed Captions, 29.97 fps, 29.97 tbr, 90k tbn, 59.94 tbc
    Metadata:
      variant_bitrate : 0
  Stream #0:1: Audio: aac (HE-AAC) ([15][0][0][0] / 0x000F), 48000 Hz, stereo, fltp
    Metadata:
      variant_bitrate : 0
Output #0, mpegts, to 'file:output.ts.part':
  Metadata:
    encoder         : Lavf58.76.100
  Stream #0:0: Video: h264 (Main) ([27][0][0][0] / 0x001B), yuv420p, 1280x720 [SAR 1:1 DAR 16:9], q=2-31, 29.97 fps, 29.97 tbr, 90k tbn, 90k tbc
    Metadata:
      variant_bitrate : 0
  Stream #0:1: Audio: aac (HE-AAC) ([15][0][0][0] / 0x000F), 48000 Hz, stereo, fltp
    Metadata:
      variant_bitrate : 0
Stream mapping:
  Stream #0:0 -> #0:0 (copy)
  Stream #0:1 -> #0:1 (copy)
Press [q] to stop, [?] for help
frame=    1 fps=0.0 q=-1.0 size=       0kB time=00:00:00.00 bitrate=   0.0kbits/s speed=N/A    frame=  150 fps=0.0 q=-1.0 Lsize=    1580kB time=00:00:04.97 bitrate=2598.8kbits/s speed= 175x    
video:1430kB audio:78kB subtitle:0kB other streams:0kB global headers:0kB muxing overhead: 4.750230%
[download] 100% of    1.54MiB in 00:00:00 at 3.74MiB/s
[FixupM3u8] Fixing MPEG-TS in MP4 container of "output.ts"
[generic] Extracting URL: https://ktpremium.com:443/M919HR/5577/492391?c=香港
[generic] 492391?c=香港: Downloading webpage
[redirect] Following redirect to http://ww12.ktpremium.com/M919HR/5577/492391?c=%E9%A6%99%E6%B8%AF&usid=27&utid=8805225363
[generic] Extracting URL: http://ww12.ktpremium.com/M919HR/5577/492391?c=%E9%A6%99%E6%B8%AF&usid=27&utid=8805225363
[generic] 492391?c=香港&usid=27&utid=8805225363: Downloading webpage
WARNING: [generic] Falling back on generic information extractor
[generic] 492391?c=香港&usid=27&utid=8805225363: Extracting information
ERROR: Unsupported URL: http://ww12.ktpremium.com/M919HR/5577/492391?c=%E9%A6%99%E6%B8%AF&usid=27&utid=8805225363
[generic] Extracting URL: https://js1.amtb.cn/liveedge/_definst_/livetv/playlist.m3u8
[generic] playlist: Downloading webpage
[generic] playlist: Downloading m3u8 information
[generic] playlist: Checking m3u8 live status
[info] playlist: Downloading 1 format(s): 919
[download] Destination: output.ts
[hls @ 0x559b4983a7c0] Skip ('#EXT-X-VERSION:3')
[hls @ 0x559b4983a7c0] Skip ('#EXT-X-DISCONTINUITY-SEQUENCE:106')
[hls @ 0x559b4983a7c0] Opening 'https://js1.amtb.cn/liveedge/_definst_/livetv/media-usa4ck32n_38085.ts' for reading
[hls @ 0x559b4983a7c0] Opening 'https://js1.amtb.cn/liveedge/_definst_/livetv/media-usa4ck32n_38086.ts' for reading
Input #0, hls, from 'https://js1.amtb.cn/liveedge/_definst_/livetv/chunklist.m3u8':
  Duration: N/A, start: 93668.867933, bitrate: N/A
  Program 0 
    Metadata:
      variant_bitrate : 0
  Stream #0:0: Data: timed_id3 (ID3  / 0x20334449)
    Metadata:
      variant_bitrate : 0
  Stream #0:1: Video: h264 (Main) ([27][0][0][0] / 0x001B), yuv420p, 1280x720, 29.97 tbr, 90k tbn, 59.94 tbc
    Metadata:
      variant_bitrate : 0
  Stream #0:2: Audio: aac (LC) ([15][0][0][0] / 0x000F), 48000 Hz, stereo, fltp
    Metadata:
      variant_bitrate : 0
Output #0, mpegts, to 'file:output.ts.part':
  Metadata:
    encoder         : Lavf58.76.100
  Stream #0:0: Video: h264 (Main) ([27][0][0][0] / 0x001B), yuv420p, 1280x720, q=2-31, 29.97 tbr, 90k tbn, 90k tbc
    Metadata:
      variant_bitrate : 0
  Stream #0:1: Audio: aac (LC) ([15][0][0][0] / 0x000F), 48000 Hz, stereo, fltp
    Metadata:
      variant_bitrate : 0
Stream mapping:
  Stream #0:1 -> #0:0 (copy)
  Stream #0:2 -> #0:1 (copy)
Press [q] to stop, [?] for help
frame=    1 fps=0.0 q=-1.0 size=       0kB time=00:00:00.00 bitrate=N/A speed=   0x    frame=   90 fps=0.0 q=-1.0 size=     256kB time=00:00:02.96 bitrate= 706.9kbits/s speed=4.55x    frame=  152 fps=0.0 q=-1.0 Lsize=     664kB time=00:00:04.99 bitrate=1089.4kbits/s speed=6.63x    
video:525kB audio:80kB subtitle:0kB other streams:0kB global headers:0kB muxing overhead: 9.852715%
[download] 100% of  664.06KiB in 00:00:04 at 144.76KiB/s
[FixupM3u8] Fixing MPEG-TS in MP4 container of "output.ts"
[generic] Extracting URL: https://tvb.mytvsuper.us.kg/stream/tvb/null-19/master.m3u8?u=btjson&p=213f2541f159ac2ec56f4173f37...7892870cf85ea22cb3cc
[generic] master: Downloading webpage
ERROR: [generic] Unable to download webpage: <urllib3.connection.HTTPSConnection object at 0x7fe3c35b7970>: Failed to resolve 'tvb.mytvsuper.us.kg' ([Errno -2] Name or service not known) (caused by TransportError("<urllib3.connection.HTTPSConnection object at 0x7fe3c35b7970>: Failed to resolve 'tvb.mytvsuper.us.kg' ([Errno -2] Name or service not known)"))
[generic] Extracting URL: https://z02.ubtvfans.com/live/rx1/2810/babd6519bebc0baac3da4c6a72c8351e/index.m3u8
[generic] index: Downloading webpage
ERROR: [generic] Unable to download webpage: <urllib3.connection.HTTPSConnection object at 0x7f399ca03970>: Failed to resolve 'z02.ubtvfans.com' ([Errno -2] Name or service not known) (caused by TransportError("<urllib3.connection.HTTPSConnection object at 0x7f399ca03970>: Failed to resolve 'z02.ubtvfans.com' ([Errno -2] Name or service not known)"))
[generic] Extracting URL: https://test.zapi.us.kg/?id=phtv-hk
[generic] ?id=phtv-hk: Downloading webpage
ERROR: [generic] Unable to download webpage: <urllib3.connection.HTTPSConnection object at 0x7f8549caf970>: Failed to resolve 'test.zapi.us.kg' ([Errno -5] No address associated with hostname) (caused by TransportError("<urllib3.connection.HTTPSConnection object at 0x7f8549caf970>: Failed to resolve 'test.zapi.us.kg' ([Errno -5] No address associated with hostname)"))
========= FifastbLive ===测速日志==========
========= hnbblive ===测速日志==========
========= taiwan ===测速日志==========
[generic] Extracting URL: https://ktpremium.com:443/M919HR/5577/889368?c=台湾
[generic] 889368?c=台湾: Downloading webpage
[redirect] Following redirect to http://ww12.ktpremium.com/M919HR/5577/889368?c=%E5%8F%B0%E6%B9%BE&usid=27&utid=8805241452
[generic] Extracting URL: http://ww12.ktpremium.com/M919HR/5577/889368?c=%E5%8F%B0%E6%B9%BE&usid=27&utid=8805241452
[generic] 889368?c=台湾&usid=27&utid=8805241452: Downloading webpage
WARNING: [generic] Falling back on generic information extractor
[generic] 889368?c=台湾&usid=27&utid=8805241452: Extracting information
ERROR: Unsupported URL: http://ww12.ktpremium.com/M919HR/5577/889368?c=%E5%8F%B0%E6%B9%BE&usid=27&utid=8805241452
[generic] Extracting URL: https://bsex.serv00.net/Smart.php?id=sanlitaiwan
[generic] Smart: Downloading webpage
ERROR: [generic] Unable to download webpage: HTTP Error 403: Forbidden (caused by <HTTPError 403: Forbidden>)
[generic] Extracting URL: https://z02.ubtvfans.com/live/rx1/36/5c8794bb35c77bc62b0f2cf402294053/index.m3u8
[generic] index: Downloading webpage
ERROR: [generic] Unable to download webpage: <urllib3.connection.HTTPSConnection object at 0x7f0ea5b9f970>: Failed to resolve 'z02.ubtvfans.com' ([Errno -2] Name or service not known) (caused by TransportError("<urllib3.connection.HTTPSConnection object at 0x7f0ea5b9f970>: Failed to resolve 'z02.ubtvfans.com' ([Errno -2] Name or service not known)"))
[generic] Extracting URL: https://sanlihalive1-a.akamaihd.net/5ffd3a166f7241d9b489b7d7241db96f/ap-northeast-1/4338955585001...84c95ae3d4a569e932b1
[generic] chunklist: Downloading webpage
ERROR: [generic] Unable to download webpage: HTTP Error 403: Forbidden (caused by <HTTPError 403: Forbidden>)
[generic] Extracting URL: https://sc2022.stream-link.org/tv2306.php?id=t25&checkedby:iptvcat.com
[generic] tv2306.php?id=t25&checkedby:iptvcat: Downloading webpage
ERROR: [generic] Unable to download webpage: <urllib3.connection.HTTPSConnection object at 0x7fb8e41e3970>: Failed to resolve 'sc2022.stream-link.org' ([Errno -2] Name or service not known) (caused by TransportError("<urllib3.connection.HTTPSConnection object at 0x7fb8e41e3970>: Failed to resolve 'sc2022.stream-link.org' ([Errno -2] Name or service not known)"))
========= ystenlive ===测速日志==========
========= macau ===测速日志==========
[generic] Extracting URL: https://pulltv2.wanfudaluye.com/live/tv2.m3u8
[generic] tv2: Downloading webpage
[generic] tv2: Downloading m3u8 information
[generic] tv2: Checking m3u8 live status
[info] tv2: Downloading 1 format(s): 0
[download] Destination: output.ts
[hls @ 0x5632428257c0] Skip ('#EXT-X-VERSION:3')
[hls @ 0x5632428257c0] Skip ('#EXT-X-ALLOW-CACHE:NO')
[hls @ 0x5632428257c0] Opening 'https://pulltv2.wanfudaluye.com/live/tv2-1728828285.ts?txspiseq=107018213639093336581' for reading
[hls @ 0x5632428257c0] Opening 'https://pulltv2.wanfudaluye.com/live/tv2-1728828286.ts?txspiseq=107018213639093336581' for reading
Input #0, hls, from 'https://pulltv2.wanfudaluye.com/live/tv2.m3u8':
  Duration: N/A, start: 75671.831644, bitrate: N/A
  Program 0 
    Metadata:
      variant_bitrate : 0
  Stream #0:0: Video: h264 (High) ([27][0][0][0] / 0x001B), yuv420p, 1280x720 [SAR 1:1 DAR 16:9], 30 tbr, 90k tbn, 59.94 tbc
    Metadata:
      variant_bitrate : 0
  Stream #0:1: Audio: aac (LC) ([15][0][0][0] / 0x000F), 44100 Hz, stereo, fltp
    Metadata:
      variant_bitrate : 0
Output #0, mpegts, to 'file:output.ts.part':
  Metadata:
    encoder         : Lavf58.76.100
  Stream #0:0: Video: h264 (High) ([27][0][0][0] / 0x001B), yuv420p, 1280x720 [SAR 1:1 DAR 16:9], q=2-31, 30 tbr, 90k tbn, 90k tbc
    Metadata:
      variant_bitrate : 0
  Stream #0:1: Audio: aac (LC) ([15][0][0][0] / 0x000F), 44100 Hz, stereo, fltp
    Metadata:
      variant_bitrate : 0
Stream mapping:
  Stream #0:0 -> #0:0 (copy)
  Stream #0:1 -> #0:1 (copy)
Press [q] to stop, [?] for help
frame=    1 fps=0.0 q=-1.0 size=       0kB time=00:00:00.00 bitrate=N/A speed=N/A    [https @ 0x563242b576c0] Opening 'https://pulltv2.wanfudaluye.com/live/tv2-1728828287.ts?txspiseq=107018213639093336581' for reading
frame=  150 fps=0.0 q=-1.0 Lsize=     906kB time=00:00:04.99 bitrate=1487.0kbits/s speed=50.8x    
video:776kB audio:77kB subtitle:0kB other streams:0kB global headers:0kB muxing overhead: 6.219796%
[download] 100% of  906.22KiB in 00:00:00 at 2.07MiB/s
[FixupM3u8] Fixing MPEG-TS in MP4 container of "output.ts"
[generic] Extracting URL: https://pulltv1.wanfudaluye.com/live/tv2.m3u8
[generic] tv2: Downloading webpage
[generic] tv2: Downloading m3u8 information
[generic] tv2: Checking m3u8 live status
[info] tv2: Downloading 1 format(s): 0
[download] Destination: output.ts
[hls @ 0x5636de8457c0] Skip ('#EXT-X-VERSION:3')
[hls @ 0x5636de8457c0] Skip ('#EXT-X-ALLOW-CACHE:NO')
[hls @ 0x5636de8457c0] Opening 'https://pulltv1.wanfudaluye.com/live/tv2-1728828286.ts?txspiseq=107018213639093336581' for reading
[hls @ 0x5636de8457c0] Opening 'https://pulltv1.wanfudaluye.com/live/tv2-1728828287.ts?txspiseq=107018213639093336581' for reading
Input #0, hls, from 'https://pulltv1.wanfudaluye.com/live/tv2.m3u8':
  Duration: N/A, start: 75674.850233, bitrate: N/A
  Program 0 
    Metadata:
      variant_bitrate : 0
  Stream #0:0: Video: h264 (High) ([27][0][0][0] / 0x001B), yuv420p, 1280x720 [SAR 1:1 DAR 16:9], 30 tbr, 90k tbn, 59.94 tbc
    Metadata:
      variant_bitrate : 0
  Stream #0:1: Audio: aac (LC) ([15][0][0][0] / 0x000F), 44100 Hz, stereo, fltp
    Metadata:
      variant_bitrate : 0
Output #0, mpegts, to 'file:output.ts.part':
  Metadata:
    encoder         : Lavf58.76.100
  Stream #0:0: Video: h264 (High) ([27][0][0][0] / 0x001B), yuv420p, 1280x720 [SAR 1:1 DAR 16:9], q=2-31, 30 tbr, 90k tbn, 90k tbc
    Metadata:
      variant_bitrate : 0
  Stream #0:1: Audio: aac (LC) ([15][0][0][0] / 0x000F), 44100 Hz, stereo, fltp
    Metadata:
      variant_bitrate : 0
Stream mapping:
  Stream #0:0 -> #0:0 (copy)
  Stream #0:1 -> #0:1 (copy)
Press [q] to stop, [?] for help
frame=    1 fps=0.0 q=-1.0 size=       0kB time=00:00:00.00 bitrate=N/A speed=N/A    [https @ 0x5636deb776c0] Opening 'https://pulltv1.wanfudaluye.com/live/tv2-1728828288.ts?txspiseq=107018213639093336581' for reading
frame=  151 fps=0.0 q=-1.0 Lsize=    1026kB time=00:00:04.99 bitrate=1682.9kbits/s speed=15.1x    
video:891kB audio:77kB subtitle:0kB other streams:0kB global headers:0kB muxing overhead: 5.984010%
[download] 100% of    1.00MiB in 00:00:00 at 1.67MiB/s
[FixupM3u8] Fixing MPEG-TS in MP4 container of "output.ts"
[generic] Extracting URL: https://reflect-vod-cmac.cablecast.tv/live-11/live/live.m3u8
[generic] live: Downloading webpage
[generic] live: Downloading m3u8 information
[generic] live: Checking m3u8 live status
[info] live: Downloading 1 format(s): 2410
[download] Destination: output.ts
[hls @ 0x5581fd7567c0] Skip ('#EXT-X-VERSION:6')
[hls @ 0x5581fd7567c0] Skip ('#EXT-X-INDEPENDENT-SEGMENTS')
[hls @ 0x5581fd7567c0] Skip ('#EXT-X-PROGRAM-DATE-TIME:2024-10-20T01:32:40.535Z')
[hls @ 0x5581fd7567c0] Skip ('#EXT-X-PROGRAM-DATE-TIME:2024-10-20T01:32:50.535Z')
[hls @ 0x5581fd7567c0] Skip ('#EXT-X-PROGRAM-DATE-TIME:2024-10-20T01:33:00.535Z')
[hls @ 0x5581fd7567c0] Skip ('#EXT-X-PROGRAM-DATE-TIME:2024-10-20T01:33:10.535Z')
[hls @ 0x5581fd7567c0] Skip ('#EXT-X-PROGRAM-DATE-TIME:2024-10-20T01:33:20.535Z')
[hls @ 0x5581fd7567c0] Skip ('#EXT-X-PROGRAM-DATE-TIME:2024-10-20T01:33:30.535Z')
[hls @ 0x5581fd7567c0] Skip ('#EXT-X-PROGRAM-DATE-TIME:2024-10-20T01:33:40.535Z')
[hls @ 0x5581fd7567c0] Skip ('#EXT-X-PROGRAM-DATE-TIME:2024-10-20T01:33:50.535Z')
[hls @ 0x5581fd7567c0] Skip ('#EXT-X-PROGRAM-DATE-TIME:2024-10-20T01:34:00.535Z')
[hls @ 0x5581fd7567c0] Skip ('#EXT-X-PROGRAM-DATE-TIME:2024-10-20T01:34:10.535Z')
[hls @ 0x5581fd7567c0] Opening 'https://reflect-vod-cmac.cablecast.tv/live-11/live/init-segments/WIFI-2096k-1080p-init000.mp4' for reading
[hls @ 0x5581fd7567c0] Opening 'https://reflect-vod-cmac.cablecast.tv/live-11/live/segments/WIFI-2096k-1080p-00084207.m4s?duration=10' for reading
[hls @ 0x5581fd7567c0] Opening 'https://reflect-vod-cmac.cablecast.tv/live-11/live/segments/WIFI-2096k-1080p-00084208.m4s?duration=10' for reading
Input #0, hls, from 'https://reflect-vod-cmac.cablecast.tv/live-11/live/WIFI-2096k-1080p.m3u8?duration=0':
  Duration: N/A, start: 842157.376667, bitrate: 0 kb/s
  Program 0 
    Metadata:
      variant_bitrate : 0
  Stream #0:0: Video: h264 (Main) (avc1 / 0x31637661), yuv420p(tv, bt709), 1920x1080 [SAR 1:1 DAR 16:9], Closed Captions, 0 kb/s, 30 fps, 30 tbr, 3k tbn, 60 tbc (default)
    Metadata:
      variant_bitrate : 0
      major_brand     : cmf2
      minor_version   : 0
      compatible_brands: iso6cmfccfhd
      creation_time   : 2024-10-10T07:39:31.000000Z
Output #0, mpegts, to 'file:output.ts.part':
  Metadata:
    encoder         : Lavf58.76.100
  Stream #0:0: Video: h264 (Main) (avc1 / 0x31637661), yuv420p(tv, bt709), 1920x1080 [SAR 1:1 DAR 16:9], q=2-31, 0 kb/s, 30 fps, 30 tbr, 90k tbn, 3k tbc (default)
    Metadata:
      variant_bitrate : 0
      major_brand     : cmf2
      minor_version   : 0
      compatible_brands: iso6cmfccfhd
      creation_time   : 2024-10-10T07:39:31.000000Z
Stream mapping:
  Stream #0:0 -> #0:0 (copy)
Press [q] to stop, [?] for help
frame=    1 fps=0.0 q=-1.0 size=      58kB time=-00:00:00.06 bitrate=N/A speed=N/A    frame=  152 fps=0.0 q=-1.0 Lsize=    1019kB time=00:00:04.96 bitrate=1681.5kbits/s speed= 103x    
video:965kB audio:0kB subtitle:0kB other streams:0kB global headers:0kB muxing overhead: 5.691437%
[download] 100% of 1019.50KiB in 00:00:01 at 670.63KiB/s
[FixupM3u8] Fixing MPEG-TS in MP4 container of "output.ts"
[generic] Extracting URL: https://pi.0472.org/tv/asam.php?auth=2309081833
[generic] asam: Downloading webpage
[redirect] Following redirect to https://0472.org/hls/cgtn.m3u8
[generic] Extracting URL: https://0472.org/hls/cgtn.m3u8
[generic] cgtn: Downloading webpage
[generic] cgtn: Downloading m3u8 information
[generic] cgtn: Checking m3u8 live status
[info] cgtn: Downloading 1 format(s): 1000
[download] Destination: output.ts
[hls @ 0x55dd618797c0] Skip ('#EXT-X-VERSION:3')
[hls @ 0x55dd618797c0] Skip ('#EXT-X-ALLOW-CACHE:YES')
[hls @ 0x55dd618797c0] Skip ('#EXT-X-PROGRAM-DATE-TIME:2024-10-20T09:33:28+08:00')
[hls @ 0x55dd618797c0] Skip ('#EXT-X-PROGRAM-DATE-TIME:2024-10-20T09:33:38+08:00')
[hls @ 0x55dd618797c0] Skip ('#EXT-X-PROGRAM-DATE-TIME:2024-10-20T09:33:48+08:00')
[hls @ 0x55dd618797c0] Skip ('#EXT-X-PROGRAM-DATE-TIME:2024-10-20T09:33:58+08:00')
[hls @ 0x55dd618797c0] Skip ('#EXT-X-PROGRAM-DATE-TIME:2024-10-20T09:34:08+08:00')
[hls @ 0x55dd618797c0] Skip ('#EXT-X-PROGRAM-DATE-TIME:2024-10-20T09:34:18+08:00')
[hls @ 0x55dd618797c0] Opening 'https://english-livetx.cgtn.com/hls/yypdyyctzbhd-1729079871.ts' for reading
[hls @ 0x55dd618797c0] Opening 'https://english-livetx.cgtn.com/hls/yypdyyctzbhd-1729079872.ts' for reading
Input #0, hls, from 'https://english-livetx.cgtn.com/hls/yypdyyctzb_hd.m3u8':
  Duration: N/A, start: 11270.010000, bitrate: N/A
  Program 0 
    Metadata:
      variant_bitrate : 0
  Stream #0:0: Audio: aac (LC) ([15][0][0][0] / 0x000F), 44100 Hz, stereo, fltp
    Metadata:
      variant_bitrate : 0
  Stream #0:1: Video: h264 (Main) ([27][0][0][0] / 0x001B), yuv420p, 1280x720, 25 fps, 25 tbr, 90k tbn, 50 tbc
    Metadata:
      variant_bitrate : 0
Output #0, mpegts, to 'file:output.ts.part':
  Metadata:
    encoder         : Lavf58.76.100
  Stream #0:0: Video: h264 (Main) ([27][0][0][0] / 0x001B), yuv420p, 1280x720, q=2-31, 25 fps, 25 tbr, 90k tbn, 90k tbc
    Metadata:
      variant_bitrate : 0
  Stream #0:1: Audio: aac (LC) ([15][0][0][0] / 0x000F), 44100 Hz, stereo, fltp
    Metadata:
      variant_bitrate : 0
Stream mapping:
  Stream #0:1 -> #0:0 (copy)
  Stream #0:0 -> #0:1 (copy)
Press [q] to stop, [?] for help
frame=    0 fps=0.0 q=-1.0 size=       0kB time=00:00:00.00 bitrate=   0.0kbits/s speed=N/A    frame=  125 fps=0.0 q=-1.0 Lsize=    1362kB time=00:00:04.99 bitrate=2231.2kbits/s speed= 183x    
video:1260kB audio:40kB subtitle:0kB other streams:0kB global headers:0kB muxing overhead: 4.703442%
[download] 100% of    1.33MiB in 00:00:00 at 3.14MiB/s
[FixupM3u8] Fixing MPEG-TS in MP4 container of "output.ts"
[generic] Extracting URL: https://live.mastvnet.com/lsdream/MSTV/1500/live.m3u8
[generic] live: Downloading webpage
ERROR: [generic] Unable to download webpage: (<urllib3.connection.HTTPSConnection object at 0x7ff8e5fff970>, 'Connection to live.mastvnet.com timed out. (connect timeout=20.0)') (caused by TransportError("(<urllib3.connection.HTTPSConnection object at 0x7ff8e5fff970>, 'Connection to live.mastvnet.com timed out. (connect timeout=20.0)')"))
[generic] Extracting URL: https://test.zapi.us.kg/?id=tdm
[generic] ?id=tdm: Downloading webpage
ERROR: [generic] Unable to download webpage: <urllib3.connection.HTTPSConnection object at 0x7f60f5143970>: Failed to resolve 'test.zapi.us.kg' ([Errno -5] No address associated with hostname) (caused by TransportError("<urllib3.connection.HTTPSConnection object at 0x7f60f5143970>: Failed to resolve 'test.zapi.us.kg' ([Errno -5] No address associated with hostname)"))
[generic] Extracting URL: https://live.yzd.jialiangos.com:4443/live/fhw/17
[generic] 17: Downloading webpage
ERROR: [generic] Unable to download webpage: HTTPSConnectionPool(host='live.yzd.jialiangos.com', port=4443): Read timed out. (read timeout=20.0) (caused by TransportError("HTTPSConnectionPool(host='live.yzd.jialiangos.com', port=4443): Read timed out. (read timeout=20.0)"))
[generic] Extracting URL: https://z02.ubtvfans.com/live/rx1/70/4f5d1beff287c563c64c30e7f7fc5729/index.m3u8
[generic] index: Downloading webpage
ERROR: [generic] Unable to download webpage: <urllib3.connection.HTTPSConnection object at 0x7f32eb423970>: Failed to resolve 'z02.ubtvfans.com' ([Errno -2] Name or service not known) (caused by TransportError("<urllib3.connection.HTTPSConnection object at 0x7f32eb423970>: Failed to resolve 'z02.ubtvfans.com' ([Errno -2] Name or service not known)"))
